<svg xmlns="http://www.w3.org/2000/svg" viewBox="0 0 198.27 61.5"><defs><style>.a{fill:#ffb71b;}</style></defs><title>Ansys logo - Brandlogos.net</title><polygon class="a" points="20 0 0 49.07 13.45 49.07 33.42 0 20 0"/><polygon points="29.82 18.07 42.59 49.07 56.99 49.07 36.69 1.57 29.82 18.07"/><path d="M493.87,495.22a14.14,14.14,0,0,0-6.48,1.46,11.84,11.84,0,0,0-4.68,4.24v-4.85H472.5v34.09H483V511a7.77,7.77,0,0,1,2-5.56,6.91,6.91,0,0,1,5.24-2.09,4.82,4.82,0,0,1,4,1.59q1.28,1.6,1.28,5.06v20H506v-20.5q0-7.23-3-10.8t-9.1-3.57Z" transform="translate(-412.87 -481.25)"/><path d="M531.05,510l-5.76-1.32a9,9,0,0,1-2.92-1.18,2.05,2.05,0,0,1-.83-1.73,2.62,2.62,0,0,1,1.38-2.36,7.41,7.41,0,0,1,3.82-.83,18.8,18.8,0,0,1,10.7,3.74l2.78-6.94A22,22,0,0,0,534,496.3a23.34,23.34,0,0,0-7.15-1.11,20.08,20.08,0,0,0-7.67,1.38,12.09,12.09,0,0,0-5.2,3.82,9,9,0,0,0-1.84,5.62,8.6,8.6,0,0,0,2.32,6.35c1.54,1.56,4,2.69,7.26,3.43l5.56,1.25a10,10,0,0,1,3.51,1.25,2.28,2.28,0,0,1,.94,1.94,2.43,2.43,0,0,1-1.36,2.19,7.47,7.47,0,0,1-3.78.8,22.47,22.47,0,0,1-6.73-1,23.41,23.41,0,0,1-6.11-2.92l-2.78,7.21a21.2,21.2,0,0,0,6.77,3.09,32.74,32.74,0,0,0,8.65,1.07q6.87,0,10.8-2.82a9,9,0,0,0,3.93-7.74,8.75,8.75,0,0,0-2.4-6.48c-1.61-1.61-4.14-2.79-7.61-3.58Z" transform="translate(-412.87 -481.25)"/><path d="M608.74,513.75c-1.59-1.59-4.13-2.79-7.6-3.57l-5.77-1.32a9,9,0,0,1-2.92-1.18,2,2,0,0,1-.83-1.73,2.62,2.62,0,0,1,1.38-2.36,7.4,7.4,0,0,1,3.82-.83,18.8,18.8,0,0,1,10.7,3.74l2.78-6.94a22,22,0,0,0-6.25-3.12,23.34,23.34,0,0,0-7.15-1.11,20.12,20.12,0,0,0-7.67,1.38,12.14,12.14,0,0,0-5.21,3.82,9.06,9.06,0,0,0-1.84,5.62,8.58,8.58,0,0,0,2.32,6.35c1.54,1.56,4,2.69,7.25,3.43l5.56,1.25a10,10,0,0,1,3.51,1.25,2.27,2.27,0,0,1,.94,1.94,2.43,2.43,0,0,1-1.36,2.19,7.47,7.47,0,0,1-3.78.8,22.47,22.47,0,0,1-6.73-1,23.41,23.41,0,0,1-6.11-2.92L581,526.6a21.33,21.33,0,0,0,6.77,3.09,32.74,32.74,0,0,0,8.65,1.07q6.87,0,10.8-2.82a9,9,0,0,0,3.93-7.74,8.84,8.84,0,0,0-2.4-6.5Z" transform="translate(-412.87 -481.25)"/><polygon points="138.49 61.5 148.64 61.5 167.62 15.02 157.47 15.02 149.29 34.99 141.11 15.02 130.96 15.02 144.05 47.43 138.49 61.5"/></svg>